<svg xmlns="http://www.w3.org/2000/svg" width="212" height="76" viewBox="0 0 212 76" role="img" aria-label="linkedin"><title>linkedin</title><defs><pattern id="grain" width="70" height="70" patternUnits="userSpaceOnUse"><circle cx="22.7" cy="10.6" r="1.0" fill="#8a6a45" fill-opacity="0.09"/><circle cx="37.5" cy="25.6" r="0.5" fill="#8a6a45" fill-opacity="0.14"/><circle cx="2.6" cy="30.4" r="0.6" fill="#8a6a45" fill-opacity="0.09"/><circle cx="29.7" cy="57.9" r="0.6" fill="#8a6a45" fill-opacity="0.11"/><circle cx="43.9" cy="66.3" r="1.0" fill="#8a6a45" fill-opacity="0.13"/><circle cx="68.3" cy="3.3" r="1.2" fill="#8a6a45" fill-opacity="0.11"/><circle cx="10.1" cy="8.2" r="0.7" fill="#8a6a45" fill-opacity="0.18"/><circle cx="12.7" cy="40.7" r="1.0" fill="#8a6a45" fill-opacity="0.12"/><circle cx="38.3" cy="4.4" r="0.5" fill="#8a6a45" fill-opacity="0.10"/><circle cx="47.6" cy="29.9" r="0.8" fill="#8a6a45" fill-opacity="0.15"/><circle cx="31.7" cy="21.0" r="1.1" fill="#8a6a45" fill-opacity="0.16"/><circle cx="17.1" cy="40.2" r="0.9" fill="#8a6a45" fill-opacity="0.19"/><circle cx="51.1" cy="20.2" r="1.3" fill="#8a6a45" fill-opacity="0.09"/><circle cx="29.3" cy="53.0" r="0.6" fill="#8a6a45" fill-opacity="0.14"/><circle cx="2.7" cy="46.8" r="1.1" fill="#8a6a45" fill-opacity="0.15"/><circle cx="61.3" cy="22.0" r="1.1" fill="#8a6a45" fill-opacity="0.15"/><circle cx="40.6" cy="31.9" r="1.2" fill="#8a6a45" fill-opacity="0.19"/><circle cx="33.2" cy="46.5" r="0.5" fill="#8a6a45" fill-opacity="0.16"/><circle cx="45.3" cy="69.5" r="1.2" fill="#8a6a45" fill-opacity="0.11"/><circle cx="27.0" cy="46.8" r="0.5" fill="#8a6a45" fill-opacity="0.14"/><circle cx="11.8" cy="8.2" r="0.5" fill="#8a6a45" fill-opacity="0.17"/><circle cx="9.1" cy="17.3" r="0.8" fill="#8a6a45" fill-opacity="0.18"/><circle cx="5.6" cy="31.4" r="0.9" fill="#8a6a45" fill-opacity="0.19"/><circle cx="57.3" cy="60.5" r="0.7" fill="#8a6a45" fill-opacity="0.13"/><circle cx="25.1" cy="61.9" r="1.3" fill="#8a6a45" fill-opacity="0.10"/><circle cx="12.3" cy="16.2" r="0.7" fill="#8a6a45" fill-opacity="0.14"/><circle cx="41.2" cy="18.4" r="0.5" fill="#8a6a45" fill-opacity="0.13"/><circle cx="25.8" cy="39.6" r="1.3" fill="#8a6a45" fill-opacity="0.16"/><circle cx="36.1" cy="43.2" r="1.0" fill="#8a6a45" fill-opacity="0.09"/><circle cx="63.0" cy="54.6" r="1.2" fill="#8a6a45" fill-opacity="0.18"/><circle cx="27.5" cy="27.9" r="0.6" fill="#8a6a45" fill-opacity="0.16"/><circle cx="4.4" cy="4.7" r="0.7" fill="#8a6a45" fill-opacity="0.10"/><circle cx="23.8" cy="3.7" r="0.5" fill="#8a6a45" fill-opacity="0.10"/><circle cx="7.1" cy="25.5" r="0.5" fill="#8a6a45" fill-opacity="0.18"/></pattern></defs><style>
@keyframes draw{from{stroke-dashoffset:1}to{stroke-dashoffset:0}}
@keyframes sway{0%,100%{transform:rotate(.9deg)}50%{transform:rotate(-.9deg)}}
@keyframes pop{from{opacity:0;transform:translateY(6px)}to{opacity:1;transform:none}}
.draw{stroke-dasharray:1;stroke-dashoffset:0;animation:draw 1.1s .5s ease-out both}
.sway{transform-box:fill-box;transform-origin:50% 0%;animation:sway 7s ease-in-out infinite}
.pop{animation:pop .8s ease-out both}
@media (prefers-reduced-motion:reduce){.draw,.sway,.pop{animation:none}}
</style><path d="M29.8 15.9Q45.7 15.6 60.6 16.0Q75.6 16.4 91.3 16.1Q107.0 15.7 122.4 15.7Q137.8 15.6 153.0 16.0Q168.3 16.3 184.6 16.4Q200.9 16.4 200.6 43.0Q200.3 69.6 184.6 69.4Q168.9 69.2 153.7 69.4Q138.5 69.6 122.5 70.3Q106.5 71.1 91.1 71.1Q75.6 71.1 60.5 70.8Q45.3 70.6 29.8 69.9Q14.3 69.3 14.1 42.7Q14.0 16.1 29.8 15.9Z" fill="#2b2a33"/><path d="M24.5 7.4Q40.0 7.4 55.0 8.1Q69.9 8.9 85.3 8.4Q100.7 8.0 116.0 8.5Q131.3 9.0 147.7 8.1Q164.1 7.3 178.6 7.6Q193.2 7.9 193.6 35.3Q194.0 62.6 178.3 62.4Q162.7 62.2 147.0 61.8Q131.3 61.4 115.7 61.7Q100.1 62.1 85.1 62.2Q70.1 62.3 55.0 61.9Q40.0 61.6 23.8 61.7Q7.7 61.9 8.3 34.6Q8.9 7.3 24.5 7.4Z" fill="#cfe0f7" stroke="#2b2a33" stroke-width="2.4"/><path d="M33.0 47.3Q32.4 47.5 31.8 47.0Q31.3 46.4 31.1 45.4Q30.9 44.3 31.2 43.0Q31.4 42.5 31.5 42.1Q31.6 41.7 31.6 41.5Q31.7 41.1 31.9 40.4Q32.1 39.7 32.4 38.9Q32.6 38.2 32.9 37.6Q33.1 37.0 33.2 36.8Q33.3 36.8 33.4 36.6Q33.5 36.3 33.5 36.1Q33.5 35.8 33.7 35.4Q33.8 35.1 33.9 34.9Q33.9 34.8 34.0 34.5Q34.1 34.3 34.1 34.1Q34.1 34.0 34.2 33.9Q34.3 33.7 34.3 33.6Q34.5 33.1 34.9 32.1Q35.4 31.1 35.8 29.8Q36.3 28.5 36.8 27.3Q37.2 26.1 37.5 25.2Q37.7 24.4 37.7 24.2Q37.7 23.9 37.9 23.7Q38.1 23.5 38.4 23.5Q38.5 23.3 38.9 23.3Q39.3 23.2 39.4 23.2Q39.4 23.2 39.5 23.4Q39.7 23.5 40.0 23.8Q40.3 24.1 40.5 24.4Q40.7 24.7 40.7 25.2Q40.7 25.6 40.6 26.0Q40.5 26.5 40.2 27.2Q39.8 27.9 39.2 29.4Q38.9 30.1 38.5 30.7Q38.2 31.3 38.2 31.5Q38.2 31.6 38.1 31.9Q38.0 32.2 37.8 32.6Q37.7 32.9 37.4 33.5Q37.2 34.0 36.9 34.7Q36.6 35.3 36.5 35.8Q36.3 36.2 36.3 36.3Q36.3 36.4 36.3 36.6Q36.2 36.7 36.1 36.8Q35.9 36.8 35.9 37.0Q35.9 37.2 35.9 37.2Q35.9 37.6 35.3 39.2Q34.8 41.1 34.3 42.8Q33.8 44.4 33.8 45.5Q33.8 46.3 33.6 46.8Q33.3 47.2 33.0 47.3Z M38.1 46.3Q37.8 46.0 37.7 45.5Q37.6 44.9 37.6 44.4Q37.6 43.8 37.8 43.5Q37.8 43.3 37.9 43.1Q37.9 42.9 37.9 42.8Q37.9 42.6 38.0 42.3Q38.1 41.9 38.2 41.6Q38.5 41.0 38.8 40.1Q39.1 39.2 39.4 38.3Q39.7 37.4 39.9 36.7Q40.1 36.0 40.2 35.9Q40.2 35.4 40.7 35.4Q41.2 35.3 41.7 35.7Q42.3 36.1 42.6 36.7Q42.9 37.0 42.8 37.5Q42.8 38.0 42.4 38.8Q42.2 39.1 42.0 39.8Q41.8 40.4 41.8 40.8Q41.6 41.1 41.4 41.7Q41.2 42.2 41.1 42.6Q41.0 42.8 40.9 43.3Q40.9 43.7 40.8 44.2Q40.6 44.7 40.5 45.0Q40.1 46.5 39.4 46.7Q38.7 47.0 38.1 46.3ZM41.9 31.8Q41.6 31.6 41.4 31.2Q41.2 30.8 41.2 30.4Q41.1 30.1 41.2 30.1Q41.6 29.7 41.9 29.1Q42.1 28.4 42.4 27.9Q42.5 27.8 42.6 27.6Q42.7 27.4 42.8 27.4Q43.3 27.1 44.0 27.4Q44.7 27.7 45.1 28.3Q45.4 29.0 45.3 29.7Q45.1 30.3 44.5 31.1Q43.9 31.8 43.2 32.0Q42.4 32.2 41.9 31.8Z M57.3 46.0Q56.6 45.9 56.0 45.7Q55.5 45.4 55.2 44.6Q55.1 44.0 55.1 43.4Q55.1 42.8 55.1 42.2Q55.2 41.6 55.2 41.2Q55.2 41.1 55.2 40.9Q55.2 40.6 55.2 40.4Q55.2 39.8 54.9 39.7Q54.7 39.6 54.2 39.8Q53.5 40.2 52.6 40.8Q51.7 41.4 50.7 42.1Q49.7 42.9 48.7 43.8Q47.9 44.7 47.6 45.2Q47.2 45.7 46.8 45.7Q46.6 45.8 46.3 45.6Q46.0 45.4 45.6 45.2Q45.3 44.9 45.0 44.4Q44.7 44.0 44.6 43.9Q44.6 43.4 44.7 42.9Q44.8 42.4 45.0 41.9Q45.2 41.4 45.4 40.8Q45.6 40.6 45.7 40.3Q45.8 40.0 46.0 39.7Q46.2 39.2 46.4 38.5Q46.7 37.9 47.0 37.3Q47.4 36.4 47.6 35.7Q47.8 35.0 47.9 34.2Q47.9 34.1 48.0 34.0Q48.1 33.9 48.2 33.8H48.2H48.3Q48.5 33.6 49.2 33.8Q49.8 33.9 50.2 34.2Q50.9 34.9 50.9 35.9Q50.8 36.9 49.8 38.6Q49.5 39.2 49.3 39.7Q49.0 40.1 49.0 40.3Q49.0 40.3 49.3 40.1Q49.6 39.8 50.0 39.5Q50.5 39.2 50.7 39.0Q50.9 38.9 51.5 38.4Q52.2 37.9 52.9 37.4Q53.6 36.8 54.0 36.6Q54.4 36.3 55.0 36.1Q55.5 35.8 55.7 35.8Q56.0 35.8 56.5 36.0Q57.0 36.3 57.5 36.7Q57.9 37.0 58.0 37.3Q58.0 37.4 58.0 37.7Q57.9 37.9 58.0 38.0Q57.9 38.6 58.0 39.4Q58.0 40.2 58.0 41.0Q58.0 41.8 57.8 42.3Q57.8 42.3 57.8 42.4Q57.9 42.5 57.9 42.6Q57.9 42.6 57.9 42.7Q57.9 42.8 57.9 42.8Q58.0 43.0 58.0 43.2Q58.1 43.5 58.3 43.8Q58.4 44.1 58.6 44.6Q58.7 45.0 58.2 45.5Q57.8 45.9 57.3 46.0Z M62.3 47.1Q62.0 47.0 61.6 46.5Q61.1 46.0 60.8 45.5Q60.4 44.9 60.4 44.5Q60.6 44.1 60.9 43.1Q61.2 42.1 61.6 40.8Q61.9 40.4 62.1 39.9Q62.2 39.4 62.4 38.9Q62.7 38.3 63.0 37.5Q63.4 36.6 63.7 35.7Q64.1 34.9 64.4 34.2Q64.9 33.1 65.2 32.3Q65.6 31.5 65.9 30.7Q66.3 29.9 66.6 29.0Q67.2 27.9 67.6 26.8Q68.1 25.7 68.4 24.8Q68.8 24.0 68.8 23.6Q68.8 23.3 68.9 23.2Q69.0 23.1 69.2 23.0Q69.4 22.9 69.7 22.9Q70.1 22.8 70.2 22.8Q70.6 22.9 71.0 23.5Q71.5 24.1 71.5 24.6Q71.5 25.1 70.9 26.7Q70.4 28.3 69.3 30.4Q68.1 33.1 67.4 34.6Q66.8 36.1 66.5 36.8Q66.3 37.4 66.4 37.6Q66.4 37.6 66.7 37.5Q67.0 37.3 67.6 36.9Q68.0 36.7 68.5 36.3Q69.0 35.9 69.5 35.6Q69.9 35.3 70.2 35.2Q70.4 35.0 70.8 34.8Q71.1 34.6 71.4 34.4Q72.1 33.9 72.5 34.1Q72.8 34.3 73.2 34.7Q73.6 35.2 73.4 35.7Q73.3 36.2 72.3 36.9Q71.5 37.5 70.6 38.0Q69.7 38.6 68.9 39.0Q68.2 39.4 67.9 39.6Q67.9 39.6 68.2 40.1Q68.5 40.6 68.8 41.0Q69.1 41.6 69.5 42.4Q69.9 43.2 70.1 43.6Q70.5 44.2 71.0 44.5Q71.4 44.7 72.3 44.4Q72.8 44.2 73.2 44.4Q73.6 44.5 73.8 44.9Q74.0 45.2 74.0 45.5Q74.0 45.7 73.5 46.1Q72.5 46.8 71.6 47.2Q70.7 47.7 69.9 47.1Q69.2 46.7 68.5 45.9Q67.8 45.2 66.9 44.0Q66.9 43.8 66.7 43.4Q66.5 43.0 66.4 42.9Q66.2 42.6 66.1 42.3Q65.9 42.1 65.9 42.1Q65.8 41.7 65.7 41.5Q65.5 41.2 65.3 41.2Q65.0 41.2 64.9 41.5Q64.7 41.8 64.5 42.1Q64.3 42.7 64.0 43.2Q63.8 43.8 63.7 44.5Q63.5 45.1 63.5 45.8Q63.5 46.2 63.2 46.7Q62.9 47.1 62.3 47.1Z M81.6 46.2Q80.6 46.8 79.4 46.9Q78.2 47.0 77.2 46.6Q76.2 46.2 75.6 45.3Q75.1 44.8 74.8 43.8Q74.5 42.8 74.8 41.0Q75.0 39.4 75.8 37.8Q76.6 36.1 77.7 34.8Q78.9 33.6 80.3 33.1Q80.8 32.9 81.3 32.8Q81.8 32.8 82.6 32.8Q83.5 32.9 84.1 33.2Q84.7 33.5 85.0 33.9Q85.5 34.4 85.7 35.0Q85.9 35.5 85.9 36.0Q85.7 37.1 84.8 38.4Q84.0 39.7 82.5 40.4Q81.8 40.6 81.0 40.7Q80.1 40.7 78.8 40.4Q78.0 40.2 77.7 40.6Q77.5 41.0 77.5 42.1Q77.5 42.8 77.8 43.3Q78.0 43.9 78.7 44.0Q79.5 44.2 79.8 44.1Q80.2 44.0 80.8 43.7Q81.1 43.5 81.3 43.3Q81.6 43.1 81.8 42.9Q82.1 42.7 82.3 42.6Q82.5 42.4 82.7 42.4Q82.8 42.3 83.0 42.3Q83.4 42.3 83.7 42.7Q84.0 43.1 84.1 43.4Q84.2 43.6 83.9 44.1Q83.5 44.6 82.9 45.2Q82.3 45.7 81.6 46.2ZM81.2 38.2Q81.5 38.1 82.0 37.7Q82.4 37.3 82.8 36.9Q83.2 36.4 83.2 36.2Q83.2 35.8 82.7 35.5Q82.2 35.2 81.3 35.4Q81.0 35.4 80.6 35.8Q80.2 36.1 79.8 36.6Q79.4 37.0 79.1 37.4Q78.8 37.7 78.7 37.9Q78.9 38.1 79.3 38.2Q79.8 38.3 80.3 38.3Q80.8 38.3 81.2 38.2Z M96.5 47.7Q96.0 47.8 95.6 47.5Q95.2 47.1 95.0 46.7Q94.8 46.1 94.7 45.5Q94.7 44.9 94.6 44.2L94.6 43.1L93.2 44.4Q91.9 45.5 90.9 46.0Q89.8 46.5 88.9 46.5Q88.5 46.4 88.0 46.0Q87.5 45.6 87.0 45.1Q86.6 44.6 86.4 44.2Q86.2 43.7 86.3 42.8Q86.4 41.9 86.7 40.8Q87.1 39.8 87.6 38.7Q88.1 37.7 88.8 36.9Q90.0 35.1 91.7 34.7Q93.4 34.3 94.7 35.0Q95.4 35.3 95.7 35.3Q96.0 35.2 96.1 34.8Q96.2 34.2 96.4 33.7Q96.6 33.1 96.9 32.1Q97.8 29.4 98.5 27.8Q99.1 26.3 99.7 25.1Q100.1 24.3 100.5 24.0Q100.8 23.7 101.1 23.8Q101.5 23.8 102.1 24.0Q102.6 24.3 102.8 24.8Q102.9 25.2 102.9 25.5Q102.9 25.8 102.7 26.2Q102.2 27.1 101.6 28.5Q101.0 29.9 100.3 31.6Q99.7 33.3 99.2 35.0Q98.6 36.6 98.3 37.9Q98.0 38.7 97.9 39.9Q97.8 41.1 97.7 42.4Q97.6 43.7 97.7 44.7Q97.7 45.7 97.8 46.0Q98.0 46.7 97.8 47.0Q97.6 47.4 97.3 47.5Q96.9 47.6 96.5 47.7ZM90.5 43.4Q91.0 43.2 91.5 43.0Q91.9 42.7 92.4 42.3Q93.5 41.5 94.0 40.9Q94.6 40.2 94.8 39.2Q95.0 38.7 94.8 38.3Q94.7 37.9 94.3 37.5Q93.9 37.2 93.2 37.3Q92.6 37.3 91.8 38.0Q90.9 38.8 90.3 39.9Q89.7 41.0 89.3 43.0Q89.2 43.3 89.5 43.5Q89.8 43.6 90.5 43.4Z M101.3 46.3Q101.0 46.0 100.9 45.5Q100.7 44.9 100.8 44.4Q100.8 43.8 100.9 43.5Q100.9 43.3 101.0 43.1Q101.1 42.9 101.1 42.8Q101.1 42.6 101.2 42.3Q101.3 41.9 101.4 41.6Q101.6 41.0 102.0 40.1Q102.3 39.2 102.6 38.3Q102.9 37.4 103.1 36.7Q103.3 36.0 103.3 35.9Q103.3 35.4 103.9 35.4Q104.4 35.3 104.9 35.7Q105.4 36.1 105.8 36.7Q106.1 37.0 106.0 37.5Q106.0 38.0 105.6 38.8Q105.4 39.1 105.2 39.8Q105.0 40.4 104.9 40.8Q104.8 41.1 104.6 41.7Q104.4 42.2 104.3 42.6Q104.2 42.8 104.1 43.3Q104.0 43.7 103.9 44.2Q103.8 44.7 103.6 45.0Q103.3 46.5 102.6 46.7Q101.9 47.0 101.3 46.3ZM105.1 31.8Q104.7 31.6 104.5 31.2Q104.4 30.8 104.3 30.4Q104.3 30.1 104.4 30.1Q104.7 29.7 105.0 29.1Q105.3 28.4 105.6 27.9Q105.6 27.8 105.8 27.6Q105.9 27.4 106.0 27.4Q106.5 27.1 107.2 27.4Q107.9 27.7 108.2 28.3Q108.6 29.0 108.4 29.7Q108.3 30.3 107.7 31.1Q107.1 31.8 106.4 32.0Q105.6 32.2 105.1 31.8Z M120.5 46.0Q119.7 45.9 119.2 45.7Q118.7 45.4 118.4 44.6Q118.2 44.0 118.2 43.4Q118.2 42.8 118.3 42.2Q118.4 41.6 118.4 41.2Q118.4 41.1 118.4 40.9Q118.4 40.6 118.4 40.4Q118.3 39.8 118.1 39.7Q117.9 39.6 117.4 39.8Q116.7 40.2 115.8 40.8Q114.9 41.4 113.9 42.1Q112.9 42.9 111.9 43.8Q111.1 44.7 110.7 45.2Q110.4 45.7 110.0 45.7Q109.7 45.8 109.4 45.6Q109.1 45.4 108.8 45.2Q108.5 44.9 108.2 44.4Q107.9 44.0 107.8 43.9Q107.8 43.4 107.9 42.9Q108.0 42.4 108.2 41.9Q108.4 41.4 108.6 40.8Q108.8 40.6 108.9 40.3Q109.0 40.0 109.2 39.7Q109.3 39.2 109.6 38.5Q109.9 37.9 110.2 37.3Q110.6 36.4 110.8 35.7Q111.0 35.0 111.1 34.2Q111.1 34.1 111.2 34.0Q111.2 33.9 111.4 33.8H111.4H111.4Q111.7 33.6 112.4 33.8Q113.0 33.9 113.4 34.2Q114.1 34.9 114.0 35.9Q114.0 36.9 113.0 38.6Q112.7 39.2 112.5 39.7Q112.2 40.1 112.2 40.3Q112.2 40.3 112.5 40.1Q112.8 39.8 113.2 39.5Q113.6 39.2 113.9 39.0Q114.1 38.9 114.7 38.4Q115.3 37.9 116.1 37.4Q116.8 36.8 117.2 36.6Q117.6 36.3 118.1 36.1Q118.7 35.8 118.9 35.8Q119.2 35.8 119.7 36.0Q120.2 36.3 120.7 36.7Q121.1 37.0 121.2 37.3Q121.2 37.4 121.2 37.7Q121.1 37.9 121.1 38.0Q121.1 38.6 121.1 39.4Q121.2 40.2 121.1 41.0Q121.1 41.8 121.0 42.3Q121.0 42.3 121.0 42.4Q121.1 42.5 121.1 42.6Q121.1 42.6 121.1 42.7Q121.1 42.8 121.1 42.8Q121.1 43.0 121.2 43.2Q121.3 43.5 121.5 43.8Q121.6 44.1 121.8 44.6Q121.8 45.0 121.4 45.5Q121.0 45.9 120.5 46.0Z" fill="#2b2a33"/><path d="M140 46Q154 38 168 24M164.3 36.5L168 24L155.5 27.7" fill="none" stroke="#2b2a33" stroke-width="3" stroke-linecap="round" stroke-linejoin="round"/></svg>